<svg xmlns="http://www.w3.org/2000/svg" height="1200" width="1600" version="1.1" xmlns:xlink="http://www.w3.org/1999/xlink" xmlns:svgjs="http://svgjs.com/svgjs"><rect fill="#f3ebe9" width="1600" height="1200"></rect><g><path d="M492.66 271.01H410.84C410.84 271.01 401.39 319.37 429.86 345.02H511.67C483.2 319.37 492.66 271.01 492.66 271.01Z" fill="#ffa0dc" opacity="1" stroke-width="4" stroke="none"></path><path d="M377.98 229.17H296.17C296.17 229.17 286.71 277.54 315.18 303.19H397C368.43 277.54 377.98 229.17 377.98 229.17Z" fill="#ffc930" opacity="1" stroke-width="4" stroke="none"></path></g><g><path d="M972.53 1014.55H948.34V750.48C948.34 721.38 921.92 697.67 889.51 697.67H479.8C447.38 697.67 420.97 721.38 420.97 750.48V1014.55H396.77V750.48C396.77 710.58 434.03 678.11 479.8 678.11H889.51C935.28 678.11 972.53 710.58 972.53 750.48V1014.55Z" fill="#3c2c5b" opacity="1" stroke-width="4" stroke="none"></path></g><g><path d="M787.72 678.11H682.46L675.71 639.9 668.95 601.44H774.21L776.68 615.34 787.72 678.11Z" fill="#ff4f32" opacity="1" stroke-width="4" stroke="none"></path><path d="M675.71 639.9L668.95 601.44H774.21L776.68 615.34 675.71 639.9Z" fill="#7b1100" opacity="0.2" stroke-width="4" stroke="none"></path><path d="M859.58 608.71H586.17C567.98 608.71 550.7 594.03 547.45 575.84L514.31 388.19C511.06 370 523.28 355.32 541.34 355.32L814.88 355.32C833.07 355.32 850.36 370 853.6 388.19L886.61 575.97C889.86 594.03 877.77 608.71 859.58 608.71Z" fill="#ff4f32" opacity="1" stroke-width="4" stroke="none"></path><path d="M845.42 588.96H593.32C581.62 588.96 570.58 579.48 568.5 567.91L538.22 396.38C536.14 384.69 543.94 375.33 555.64 375.33L807.73 375.33C819.43 375.33 830.47 384.82 832.55 396.38L862.83 567.91C864.78 579.48 856.98 588.96 845.42 588.96Z" fill="#ffffff" opacity="1" stroke-width="4" stroke="none"></path><path d="M775.51 608.71H670.25" stroke="#7b1100" stroke-width="4" stroke-linecap="round" stroke-linejoin="round" opacity="1" fill="none"></path></g><g><path d="M752.91 402.31H630.98L655.47 544.97H777.4L752.91 402.31Z" fill="#f7e8e5" opacity="1" stroke-width="4" stroke="none"></path><path d="M658.88 428.73H684.08C685.1 428.74 686.15 429.14 687 429.87 687.85 430.59 688.42 431.57 688.61 432.59V432.59C688.77 433.61 688.54 434.59 687.94 435.31 687.34 436.04 686.43 436.45 685.41 436.45H660.21C659.19 436.45 658.14 436.04 657.29 435.31 656.44 434.59 655.87 433.61 655.68 432.59V432.59C655.52 431.57 655.75 430.59 656.35 429.87 656.95 429.14 657.86 428.74 658.88 428.73V428.73Z" fill="#61ccff" opacity="1" stroke-width="4" stroke="none"></path><path d="M699.53 428.73H708.47C709.49 428.74 710.54 429.14 711.39 429.87 712.24 430.59 712.81 431.57 712.99 432.59V432.59C713.16 433.61 712.92 434.59 712.32 435.31 711.72 436.04 710.81 436.45 709.8 436.45H700.85C699.83 436.45 698.78 436.04 697.93 435.31 697.09 434.59 696.51 433.61 696.33 432.59V432.59C696.16 431.57 696.4 430.59 697 429.87 697.6 429.14 698.51 428.74 699.53 428.73V428.73Z" fill="#61ccff" opacity="1" stroke-width="4" stroke="none"></path><path d="M723.51 428.73H732.45C733.47 428.74 734.52 429.14 735.37 429.87 736.22 430.59 736.79 431.57 736.97 432.59V432.59C737.14 433.61 736.9 434.59 736.3 435.31 735.7 436.04 734.8 436.45 733.78 436.45H724.83C723.81 436.45 722.76 436.04 721.92 435.31 721.07 434.59 720.49 433.61 720.31 432.59 720.14 431.57 720.38 430.59 720.98 429.87 721.58 429.14 722.49 428.74 723.51 428.73Z" fill="#f74628" opacity="1" stroke-width="4" stroke="none"></path><path d="M669.45 490.31H694.65C695.67 490.31 696.72 490.72 697.57 491.44 698.42 492.17 698.99 493.15 699.18 494.17V494.17C699.34 495.19 699.11 496.17 698.51 496.89 697.91 497.61 697 498.02 695.98 498.03H670.78C669.76 498.02 668.71 497.61 667.86 496.89 667.01 496.17 666.44 495.19 666.25 494.17V494.17C666.09 493.15 666.33 492.17 666.92 491.44 667.52 490.72 668.43 490.31 669.45 490.31Z" fill="#f74628" opacity="1" stroke-width="4" stroke="none"></path><path d="M710.1 490.31H743.02C744.04 490.31 745.09 490.72 745.94 491.44 746.79 492.17 747.36 493.15 747.54 494.17V494.17C747.71 495.19 747.47 496.17 746.87 496.89 746.27 497.61 745.37 498.02 744.35 498.03H711.42C710.4 498.02 709.35 497.61 708.5 496.89 707.66 496.17 707.08 495.19 706.9 494.17V494.17C706.73 493.15 706.97 492.17 707.57 491.44 708.17 490.72 709.08 490.31 710.1 490.31V490.31Z" fill="#3c2c5b" opacity="1" stroke-width="4" stroke="none"></path><path d="M665.93 469.78H704.95C705.97 469.79 707.02 470.2 707.87 470.92 708.71 471.64 709.29 472.62 709.47 473.64 709.64 474.66 709.4 475.64 708.8 476.37 708.2 477.09 707.29 477.5 706.27 477.5H667.25C666.23 477.5 665.18 477.09 664.34 476.37 663.49 475.64 662.91 474.66 662.73 473.64V473.64C662.56 472.62 662.8 471.64 663.4 470.92 664 470.2 664.91 469.79 665.93 469.78Z" fill="#61ccff" opacity="1" stroke-width="4" stroke="none"></path><path d="M686.79 449.25H711.99C713.01 449.26 714.06 449.67 714.91 450.39 715.76 451.12 716.33 452.09 716.52 453.12V453.12C716.68 454.14 716.45 455.12 715.85 455.84 715.25 456.56 714.34 456.97 713.32 456.98H688.12C687.1 456.97 686.05 456.56 685.2 455.84 684.35 455.12 683.78 454.14 683.59 453.12V453.12C683.43 452.09 683.67 451.12 684.26 450.39 684.86 449.67 685.77 449.26 686.79 449.25V449.25Z" fill="#3c2c5b" opacity="1" stroke-width="4" stroke="none"></path><path d="M662.41 449.25H671.35C672.37 449.26 673.42 449.67 674.27 450.39 675.11 451.12 675.69 452.09 675.87 453.12 676.04 454.14 675.8 455.12 675.2 455.84 674.6 456.56 673.69 456.97 672.67 456.98H663.73C662.71 456.97 661.66 456.56 660.81 455.84 659.97 455.12 659.39 454.14 659.21 453.12V453.12C659.04 452.09 659.28 451.12 659.88 450.39 660.48 449.67 661.39 449.26 662.41 449.25V449.25Z" fill="#a7dff8" opacity="1" stroke-width="4" stroke="none"></path><path d="M727.03 449.25H735.97C737 449.26 738.04 449.67 738.89 450.39 739.74 451.12 740.31 452.09 740.5 453.12V453.12C740.67 454.14 740.43 455.12 739.83 455.84 739.23 456.56 738.32 456.97 737.3 456.98H728.36C727.34 456.97 726.29 456.56 725.44 455.84 724.59 455.12 724.02 454.14 723.83 453.12V453.12C723.67 452.09 723.9 451.12 724.5 450.39 725.1 449.67 726.01 449.26 727.03 449.25Z" fill="#3c2c5b" opacity="1" stroke-width="4" stroke="none"></path><path d="M697.36 510.83H746.54C747.57 510.84 748.61 511.25 749.46 511.97 750.31 512.69 750.88 513.67 751.07 514.69V514.69C751.24 515.72 751 516.69 750.4 517.42 749.8 518.14 748.89 518.55 747.87 518.56H698.69C697.67 518.55 696.62 518.14 695.77 517.42 694.92 516.69 694.35 515.72 694.16 514.69V514.69C694 513.67 694.24 512.69 694.84 511.97 695.43 511.25 696.34 510.84 697.36 510.83V510.83Z" fill="#61ccff" opacity="1" stroke-width="4" stroke="none"></path><path d="M672.98 510.83H681.92C682.94 510.84 683.99 511.25 684.84 511.97 685.68 512.69 686.26 513.67 686.44 514.69 686.61 515.72 686.37 516.69 685.77 517.42 685.17 518.14 684.26 518.55 683.24 518.56H674.3C673.28 518.55 672.23 518.14 671.38 517.42 670.54 516.69 669.96 515.72 669.78 514.69V514.69C669.61 513.67 669.85 512.69 670.45 511.97 671.05 511.25 671.96 510.84 672.98 510.83Z" fill="#61ccff" opacity="1" stroke-width="4" stroke="none"></path></g><g><path d="M806.19 1014.24C809.2 1008.51 812.12 1003.07 814.84 997.43 818.72 989.17 821.54 982.86 823.97 977.13L824.07 976.93H823.97C820.18 975.57 809.69 972.27 795.02 972.27 789.87 972.27 784.82 972.66 779.96 973.53H779.86L773.84 998.99 805.9 1014.92 806.19 1014.24Z" fill="#343434" opacity="1" stroke-width="4" stroke="none"></path><path d="M1043.05 473.18C1044.8 463.76 1047.14 451.61 1048.88 441.8 1050.34 434.03 1051.6 416.35 1052.19 412.95 1052.19 412.95 992.34 358.25 985.54 360.97 976.31 364.56 969.99 369.81 965.43 377 961.15 383.8 958.43 392.35 954.93 402.75L954.06 405.37C952.99 405.47 945.41 406.53 944.64 409.84 943.76 413.34 948.33 419.36 949.01 420.14 942.98 439.08 943.08 449.38 949.49 458.22 953.38 463.66 961.44 466.97 970.97 466.97 975.05 466.97 978.83 466.38 981.85 465.22L979.32 480.76 1043.05 473.18Z" fill="#e1b075" opacity="1" stroke-width="4" stroke="none"></path><path d="M985.54 480.66L995.55 458.71C987.87 462.98 981.85 465.22 981.85 465.22L980.1 475.81 985.54 480.66Z" fill="#362d22" opacity="0.2" stroke-width="4" stroke="none"></path><path d="M955.13 431.99C957.66 432.86 962.8 432.28 964.46 428.98" stroke="#362d22" stroke-width="4" stroke-linecap="round" stroke-linejoin="round" opacity="1" fill="none"></path><path d="M965.72 411.2C964.21 411.2 963 409.98 963 408.48 963 406.97 964.21 405.76 965.72 405.76 967.22 405.76 968.44 406.97 968.44 408.48 968.44 409.98 967.22 411.2 965.72 411.2Z" fill="#231f20" opacity="1" stroke-width="4" stroke="none"></path><path d="M1002.06 431.99L1010.6 426.84" stroke="#362d22" stroke-width="4" stroke-linecap="round" stroke-linejoin="round" opacity="1" fill="none"></path><path d="M1076.96 393.9C1058.77 393.9 1044.03 379.16 1044.03 360.97 1044.03 342.78 1058.77 328.03 1076.96 328.03 1095.15 328.03 1109.9 342.78 1109.9 360.97 1109.9 379.16 1095.15 393.9 1076.96 393.9Z" fill="#231f20" opacity="1" stroke-width="4" stroke="none"></path><path d="M969.8 947.3L972.52 941.28V941.18C971.35 930.49 969.61 919.51 967.47 908.54L962.61 893.96 865.65 895.52 868.08 908.73C870.8 917.96 872.74 924.86 873.23 930.4L898.68 981.01 969.8 947.3Z" fill="#e1b075" opacity="1" stroke-width="4" stroke="none"></path><path d="M975.63 1014.82V1014.63C975.82 1008.02 975.82 1001.51 975.82 995.2 975.82 987.52 975.53 980.04 975.24 972.85V972.66H975.05C960.67 974.8 947.26 980.92 936.28 990.53L936.18 990.63 939.2 1014.82H975.63Z" fill="#343434" opacity="1" stroke-width="4" stroke="none"></path><path d="M926.47 1001.61C939.58 985.48 955.91 975.96 975.05 973.14H975.24V972.46C975.05 969.65 974.95 966.83 974.75 964.21 974.27 956.92 972.81 943.32 972.62 941.28 972.62 941.18 972.52 941.08 972.33 941.08 935.6 942.83 911.41 962.65 906.36 967.12 906.16 967.31 905.87 967.12 905.97 966.93L909.37 945.65C909.95 942.15 909.17 938.56 907.04 935.74 905 932.82 901.89 930.88 898.39 930.3 897.71 930.2 896.93 930.1 896.16 930.1H873.13C872.94 930.1 872.84 930.2 872.84 930.4 872.94 931.76 873.52 937.49 873.52 939.04 873.42 962.46 863.03 971.98 852.92 981.11 848.06 985.48 843.5 989.66 840.19 995.2 839.03 997.14 838.15 999.18 837.38 1001.32L837.28 1001.61H926.47Z" fill="#61ccff" opacity="1" stroke-width="4" stroke="none"></path><path d="M967.56 908.73V908.54C959.79 867.63 946.39 827.99 927.63 790.78L921.61 779.03C963.78 778.93 999.92 766.4 1016.14 746.19 1024.5 735.7 1027.32 723.84 1024.4 710.92 1017.6 681.48 1006.62 662.54 1006.52 662.44L1006.23 661.86 1005.94 666.23C1000.69 666.81 877.5 681.78 839.42 726.95 813.87 757.26 837.18 821.78 855.84 873.56 860.4 886.29 864.77 898.33 867.98 908.73H967.56Z" fill="#ffc930" opacity="1" stroke-width="4" stroke="none"></path><path d="M864.68 897.36C864.87 896.88 879.35 844.7 941.33 821.39L941.53 821.29 941.43 821.1C937.06 810.51 932.39 800.3 927.54 790.69 925.59 786.9 924.43 784.47 923.85 783.4 923.94 783.3 923.94 783.3 922.97 781.36V781.26L828.73 753.18V753.38C824.55 786.99 841.85 834.99 855.74 873.46 858.85 881.92 861.67 889.88 864.19 897.36L864.39 897.95 864.68 897.36Z" fill="#211800" opacity="0.2" stroke-width="4" stroke="none"></path><path d="M867.98 963.72L883.53 970.13" stroke="#343434" stroke-width="4" stroke-linecap="round" stroke-linejoin="round" opacity="1" fill="none"></path><path d="M859.14 975.67L872.26 985.58" stroke="#343434" stroke-width="4" stroke-linecap="round" stroke-linejoin="round" opacity="1" fill="none"></path><path d="M868.86 908.83L967.37 908.63" stroke="#211800" stroke-width="4" stroke-linecap="round" stroke-linejoin="round" opacity="1" fill="none"></path><path d="M835.05 948.66C839.13 937.39 842.82 925.44 845.73 914.85L845.93 906.59 759.85 864.14 755.67 872.1C753.14 885.32 751.69 892.89 750.52 895.52L755.96 953.32 830.09 950.41 835.05 948.66Z" fill="#e1b075" opacity="1" stroke-width="4" stroke="none"></path><path d="M763.44 978.29C773.25 974.6 783.84 972.66 794.92 972.66 809.49 972.66 819.89 975.96 823.68 977.32L823.87 977.42 823.97 977.22C825.23 974.6 833 955.07 835.34 948.86L835.43 948.47 835.05 948.37C820.76 941.86 805.41 938.56 789.48 938.56 774.71 938.56 760.96 942.62 761.6 942.25L772.96 925.83C777.82 918.83 776.07 909.22 769.08 904.36 768.4 903.87 750.42 895.23 750.42 895.23 750.42 895.23 748.29 899.99 747.61 901.25 737.02 922.14 723.51 926.02 710.39 929.72 704.08 931.46 698.15 933.21 692.71 936.71 690.96 937.88 689.31 939.24 687.85 940.6L687.95 940.99 763.44 978.29Z" fill="#61ccff" opacity="1" stroke-width="4" stroke="none"></path><path d="M845.44 915.82C852.82 888.04 857.68 865.79 860.11 845.19 862.35 826.44 862.73 810.21 862.64 790.1L1003.9 790.49C1022.65 790.49 1043.44 787.19 1057.43 773.59 1067.44 763.87 1071.91 750.37 1073.66 736.86 1075.12 725.69 1075.12 714.23 1072.3 703.44 1069.19 691.69 1069.09 681.87 1064.23 672.84L1055.39 659.14H954.16L949.79 662.34C948.23 662.64 920.54 667.69 888.29 676.43 833.2 691.39 811.53 704.61 803.08 713.06 780.35 736.47 774.91 767.27 767.33 809.83 766.06 816.82 764.8 824.11 763.34 831.69L762.37 836.93C759.94 849.85 757.71 862.19 755.67 872.49L845.44 915.82Z" fill="#ffc930" opacity="1" stroke-width="4" stroke="none"></path><path d="M855.74 872.39C861.96 840.04 862.54 817.99 862.44 790.78" stroke="#211800" stroke-width="4" stroke-linecap="round" stroke-linejoin="round" opacity="1" fill="none"></path><path d="M730.7 921.55L741.29 934.48" stroke="#343434" stroke-width="4" stroke-linecap="round" stroke-linejoin="round" opacity="1" fill="none"></path><path d="M718.36 927.97L725.26 942.83" stroke="#343434" stroke-width="4" stroke-linecap="round" stroke-linejoin="round" opacity="1" fill="none"></path><path d="M756.16 872.39L843.89 915.24" stroke="#211800" stroke-width="4" stroke-linecap="round" stroke-linejoin="round" opacity="1" fill="none"></path><path d="M855.93 517.49L855.74 513.7C840.49 497.57 823.29 479.69 810.76 470.95 791.81 457.74 758 444.91 746.73 444.91 743.14 444.91 741.39 445.98 741.29 448.12 741.19 454.04 749.55 459.19 761.21 466.28 762.37 466.97 763.64 467.74 764.9 468.52 763.44 468.81 761.98 470.17 761.11 472.02 759.75 475.03 760.24 478.53 762.57 481.34 760.14 482.12 758.49 483.58 757.71 485.72 756.84 488.34 757.42 491.45 759.26 494.17 757.52 495.72 756.54 497.86 756.45 500.39 756.35 504.18 758.29 507.87 760.33 509.71 763.44 512.82 766.45 515.35 771.6 515.35 772.87 515.35 774.23 515.15 775.78 514.86 781.8 522.44 789.38 527.59 797.15 529.24 798.13 530.8 799.58 534 801.72 538.47 803.37 541.87 805.32 546.15 807.65 550.81L809.59 552.17 855.93 517.49Z" fill="#e1b075" opacity="1" stroke-width="4" stroke="none"></path><path d="M1071.04 697.32C1123.89 678.37 1125.05 640 1120.1 608.71 1117.38 591.13 1110.58 567.91 1101.54 545.08 1093.19 524 1084.25 506.7 1078.22 500.1 1064.72 485.23 1043.64 481.54 1041.4 481.25 1041.6 480.28 1041.79 479.3 1041.99 478.24 1042.28 476.58 1042.67 474.74 1043.05 472.79V472.6H980.49L979.03 481.15H976.6C951.15 481.15 928.61 493.59 907.62 519.14L884.21 545.86C882.75 544.11 870.51 529.44 855.74 513.5L855.64 513.41 807.65 550.81C828.83 592.39 850.01 616.58 870.51 622.41 874 623.39 877.7 623.87 881.49 623.87 909.85 623.87 938.61 596.47 941.72 593.46L949.88 662.25H1055.3C1064.82 676.63 1070.74 696.83 1070.74 697.13L1070.84 697.32H1071.04Z" fill="#61ccff" opacity="1" stroke-width="4" stroke="none"></path><path d="M1055.3 662.25L1067.05 618.24 1067.25 618.33C1073.17 621.44 1074.63 630.28 1076.38 640.48 1078.81 655.25 1081.92 673.61 1100.57 680.71H1100.67C1093.28 687.12 1083.67 692.75 1071.04 697.32H1070.84L1070.74 697.13C1070.74 696.83 1064.82 676.63 1055.3 662.25Z" fill="#081921" opacity="0.2" stroke-width="4" stroke="none"></path><path d="M984.76 662.25L953.87 582.09 941.72 593.46 949.88 662.25H984.76Z" fill="#081921" opacity="0.2" stroke-width="4" stroke="none"></path><path d="M1055.39 662.15L1072.88 597.06" stroke="#081921" stroke-width="4" stroke-linecap="round" stroke-linejoin="round" opacity="1" fill="none"></path><path d="M1078.81 641.07L1064.14 633.97" stroke="#081921" stroke-width="4" stroke-linecap="round" stroke-linejoin="round" opacity="1" fill="none"></path><path d="M941.82 593.17L958.04 576.85" stroke="#081921" stroke-width="4" stroke-linecap="round" stroke-linejoin="round" opacity="1" fill="none"></path><path d="M884.4 546.54L885.37 559.17" stroke="#081921" stroke-width="4" stroke-linecap="round" stroke-linejoin="round" opacity="1" fill="none"></path><path d="M764.22 468.03C771.02 468.03 782.58 470.37 786.95 472.99" stroke="#362d22" stroke-width="4" stroke-linecap="round" stroke-linejoin="round" opacity="1" fill="none"></path><path d="M762.96 481.54C769.76 480.66 783.46 486.69 783.46 486.69" stroke="#362d22" stroke-width="4" stroke-linecap="round" stroke-linejoin="round" opacity="1" fill="none"></path><path d="M759.56 494.27C763.93 493.39 773.25 495.14 779.28 499.41" stroke="#362d22" stroke-width="4" stroke-linecap="round" stroke-linejoin="round" opacity="1" fill="none"></path><path d="M775.2 514.18L771.21 507.67" stroke="#362d22" stroke-width="4" stroke-linecap="round" stroke-linejoin="round" opacity="1" fill="none"></path><path d="M982.43 465.02C986.8 463.37 990.1 461.72 990.1 461.72" stroke="#362d22" stroke-width="4" stroke-linecap="round" stroke-linejoin="round" opacity="1" fill="none"></path><path d="M1152.26 552.75C1155.46 538.28 1147.98 524.29 1132.15 515.35 1140.11 493.88 1138.36 473.18 1127.09 456.86 1115.44 440.05 1095.52 430.34 1072.3 430.34 1065.11 430.34 1057.82 431.31 1050.44 433.16 1050.73 431.5 1051.02 429.95 1051.31 428.59 1051.7 426.65 1051.99 424.99 1052.19 423.83L1052.38 422.57C1055 408.67 1059.86 382.73 1044.9 369.32 1035.28 360.77 1021.49 355.92 1007.01 355.92 999.33 355.92 991.66 357.28 984.86 360 975.34 363.69 968.93 369.71 964.07 379.14 964.07 379.14 970.09 387.2 981.17 387.2 983.6 387.2 986.22 386.81 985.84 387.01 983.3 395.94 987.03 410.67 991.59 417.06L993 418.85 993.49 419.5C994.39 418.87 1005.07 411.2 1014.78 411.2 1020.42 411.2 1024.4 413.82 1026.64 419.07 1033.53 435.29 1006.52 449.38 1006.23 449.57H1006.14V449.67C1004.39 456.47 1003.12 487.17 1018.96 507.58 1028.19 519.43 1041.4 525.45 1058.31 525.45 1067.73 525.45 1078.32 523.51 1089.88 519.82 1090.95 521.86 1102.12 544.2 1113.39 581.32 1113.39 581.32 1145.84 582.29 1152.26 552.75Z" fill="#231f20" opacity="1" stroke-width="4" stroke="none"></path><path d="M927.44 790.49L839.51 789.71" stroke="#211800" stroke-width="4" stroke-linecap="round" stroke-linejoin="round" opacity="1" fill="none"></path><path d="M1007.79 462.01C1002.42 462.01 998.07 457.66 998.07 452.29 998.07 446.93 1002.42 442.58 1007.79 442.58 1013.15 442.58 1017.5 446.93 1017.5 452.29 1017.5 457.66 1013.15 462.01 1007.79 462.01Z" fill="#ffffff" opacity="1" stroke-width="4" stroke="none"></path><path d="M1050.44 433.16C1046.26 434.61 1041.89 436.65 1037.91 438.69" stroke="#231f20" stroke-width="4" stroke-linecap="round" stroke-linejoin="round" opacity="1" fill="none"></path><path d="M1132.15 515.35C1130.01 520.4 1127.29 525.36 1124.37 530.02" stroke="#231f20" stroke-width="4" stroke-linecap="round" stroke-linejoin="round" opacity="1" fill="none"></path><path d="M1090.08 519.82C1099.11 517.39 1103.97 513.5 1103.97 513.5" stroke="#231f20" stroke-width="4" stroke-linecap="round" stroke-linejoin="round" opacity="1" fill="none"></path><path d="M855.54 513.7L807.74 550.91" stroke="#081921" stroke-width="4" stroke-linecap="round" stroke-linejoin="round" opacity="1" fill="none"></path><path d="M748.09 986.07C752.95 982.86 758.1 980.24 763.54 978.29L763.93 978.1 688.24 940.31 688.15 940.4C684.65 943.71 681.83 947.49 679.79 951.87L679.69 952.06 748.09 986.07Z" fill="#343434" opacity="1" stroke-width="4" stroke="none"></path><path d="M917.04 1014.82C919.96 1010.06 923.26 1005.5 926.76 1001.32L926.95 1001.03H837.47L837.38 1001.12C835.82 1005.5 835.34 1010.06 835.34 1014.63V1014.82H917.04Z" fill="#343434" opacity="1" stroke-width="4" stroke="none"></path></g><g><path d="M1066.17 814.2L1114.37 1013.09" stroke="#231f20" stroke-width="4" stroke-linecap="round" stroke-linejoin="round" opacity="1" fill="none"></path><path d="M972.51 814.2L924.32 1013.09" stroke="#231f20" stroke-width="4" stroke-linecap="round" stroke-linejoin="round" opacity="1" fill="none"></path><path d="M954.14 890.61H1084.44" stroke="#231f20" stroke-width="4" stroke-linecap="round" stroke-linejoin="round" opacity="1" fill="none"></path><path d="M946.37 788.68H1092.21C1103.03 788.68 1111.74 795.24 1111.74 803.38 1111.74 811.51 1103.03 818.07 1092.21 818.07H946.37C935.55 818.07 926.84 811.51 926.84 803.38 926.84 795.32 935.66 788.68 946.37 788.68Z" fill="#3c2c5b" opacity="1" stroke-width="4" stroke="none"></path><path d="M927.26 806.22C929.04 812.94 936.92 818.07 946.37 818.07H1092.21C1103.03 818.07 1111.74 811.51 1111.74 803.38 1111.74 800.06 1110.27 797.05 1107.86 794.6 1082.34 800.93 1051.89 805.59 1018.92 807.8 985.43 810.01 954.03 809.3 927.26 806.22Z" fill="#1c1c1c" opacity="0.3" stroke-width="4" stroke="none"></path></g><g><path d="M520.24 678.22V599.73H589.49V678.22H520.24Z" fill="#61ccff" opacity="1" stroke-width="4" stroke="none"></path><path d="M554.86 620.04C532.05 620.04 521.61 602.26 520.36 599.97 520.35 599.94 520.35 599.91 520.35 599.88 520.35 599.86 520.36 599.83 520.36 599.81 520.38 599.78 520.4 599.76 520.43 599.75 520.45 599.74 520.48 599.73 520.51 599.73H588.83C588.89 599.73 588.97 599.75 589.02 599.78 589.09 599.81 589.13 599.87 589.17 599.92 589.21 599.98 589.22 600.05 589.22 600.11 589.22 600.19 589.21 600.25 589.17 600.32 587.27 603.65 576.77 620.04 554.86 620.04Z" fill="#19333f" opacity="1" stroke-width="4" stroke="none"></path><path d="M604.08 644.05C611.22 644.05 617.01 638.26 617.01 631.12 617.01 623.99 611.22 618.2 604.08 618.2 596.94 618.2 591.15 623.99 591.15 631.12 591.15 638.26 596.94 644.05 604.08 644.05Z" stroke="#142026" stroke-width="4" stroke-linecap="round" stroke-linejoin="round" opacity="1" fill="none"></path></g><g><path d="M336.43 859.57C331.85 842.51 306.89 837.41 296.62 870.35 287.69 899.09 275.06 903.3 269.29 931.73 263.83 958.91 279.56 998.2 319.89 995.4 362.36 992.44 336.43 859.57 336.43 859.57Z" stroke="#ffffff" stroke-width="4" stroke-linecap="round" stroke-linejoin="round" opacity="1" fill="none"></path><path d="M353.49 786.82L408.03 889.15 312.87 939.88 258.32 837.55 353.49 786.82Z" fill="#ffc930" opacity="1" stroke-width="4" stroke="none"></path><path d="M380.08 800.41H379.79C363.39 800.41 350.1 813.71 350.1 830.1V857.8H409.77V830.1C409.77 813.71 396.48 800.41 380.08 800.41Z" stroke="#ffffff" stroke-width="4" stroke-linecap="round" stroke-linejoin="round" opacity="1" fill="none"></path><path d="M380.01 828.26H379.34C336.8 828.26 302.38 862.75 302.38 905.22V996.88C302.38 1006.7 310.36 1014.68 320.18 1014.68H439.17C448.99 1014.68 456.97 1006.7 456.97 996.88V905.3C457.04 862.75 422.55 828.26 380.01 828.26 380.01 828.26 380.08 828.26 380.01 828.26Z" fill="#ff4f32" opacity="1" stroke-width="4" stroke="none"></path><path d="M410.51 922.8H348.99C339.02 922.8 330.89 930.93 330.89 940.9V979.67C330.89 989.64 339.02 997.77 348.99 997.77H410.51C420.48 997.77 428.61 989.64 428.61 979.67V940.9C428.61 930.93 420.48 922.8 410.51 922.8Z" fill="#8e3526" opacity="0.3" stroke-width="4" stroke="none"></path><path d="M410.27 926.91H348.99C340.5 926.41 338.51 931.83 330.85 942.91V971.55C330.89 981.52 339.02 989.64 348.99 989.64H410.51C420.48 989.64 428.61 981.52 428.61 971.55V942.57C422.71 928.48 419.87 927.4 410.27 926.41Z" fill="#d69e00" opacity="1" stroke-width="4" stroke="none"></path><path d="M410.51 914.68H348.99C339.02 914.68 330.89 922.8 330.89 932.77V942.52H428.61V932.77C428.61 922.8 420.48 914.68 410.51 914.68Z" fill="#ffc930" stroke="#272459" stroke-width="4" opacity="1"></path><path d="M428.61 942.52H330.82" stroke="#fcfcfc" stroke-width="4" stroke-linecap="round" stroke-linejoin="round" opacity="1" fill="none"></path><path d="M379.71 891.34C371.55 891.34 364.94 884.72 364.94 876.57 364.94 868.41 371.55 861.79 379.71 861.79 387.87 861.79 394.48 868.41 394.48 876.57 394.48 884.72 387.87 891.34 379.71 891.34Z" fill="#ffc930" opacity="1" stroke-width="4" stroke="none"></path></g><g><path d="M1283.17 970.07L1270.87 969.93 1278.8 945.34C1276.72 941.52 1274.17 937.95 1271.28 934.73L1262.54 924.92C1257.03 918.67 1255.96 909.54 1259.92 902.21L1267.31 888.37H1202.48 1202.42L1209.87 902.21C1213.77 909.6 1212.69 918.74 1207.12 924.92L1198.38 934.73C1195.43 937.95 1192.88 941.52 1190.73 945.34L1197.58 969.13 1186.96 968.99 1183.13 976.11C1183.47 991.43 1189.58 1005.94 1200.33 1016.89H1269.33C1280.08 1006.01 1286.19 991.57 1286.53 976.25L1283.17 970.07Z" fill="#ff4f32" opacity="1" stroke-width="4" stroke="none"></path><path d="M1257.01 985.39C1257.84 986.1 1249.52 979.2 1242.53 976.72 1239.98 975.85 1237.29 975.37 1234.6 975.37 1224.39 975.37 1215.25 981.89 1212.13 983.73 1211.2 984.21 1199.33 975.37 1189.12 975.37 1187.1 975.37 1185.09 975.64 1183.14 976.11 1182.87 965.36 1185.56 954.62 1190.8 945.28 1200.47 945.95 1208.26 953.94 1211.89 953.76 1215.15 953.94 1219.69 949.04 1226.67 946.55 1229.23 945.68 1231.91 945.21 1234.6 945.21 1244.81 945.21 1254.02 952.92 1257.38 952.8 1261.43 952.85 1269 945.81 1278.81 945.28 1284.11 954.68 1286.8 965.43 1286.53 976.25 1284.45 975.71 1282.23 975.37 1280.08 975.37 1269.94 975.37 1263.79 978.9 1258.61 983.91Z" fill="#ffc930" opacity="1" stroke-width="4" stroke="none"></path><path d="M1234.8 901.88C1216.73 901.88 1206.29 892.86 1205.22 888.46H1264.58C1264.65 891.49 1253.01 901.88 1234.8 901.88Z" fill="#3f231e" opacity="1" stroke-width="4" stroke="none"></path><path d="M1239.64 899.93C1240.98 891.8 1246.96 859.76 1262.08 842.29" stroke="#ffc930" stroke-width="4" stroke-linecap="round" stroke-linejoin="round" opacity="1" fill="none"></path><path d="M1232.65 900.13C1232.59 890.93 1231.58 845.78 1222.64 818.84" stroke="#ffc930" stroke-width="4" stroke-linecap="round" stroke-linejoin="round" opacity="1" fill="none"></path><path d="M1252.53 865.94C1250.85 863.72 1250.38 861.97 1251.12 860.83 1252.33 858.88 1256.77 858.75 1263.62 860.43 1270.47 862.11 1278.87 865.47 1287.33 869.83 1299.29 876.01 1309.1 883.13 1313.06 888.37 1314.74 890.59 1315.21 892.34 1314.47 893.48 1313.26 895.43 1308.83 895.56 1301.98 893.88 1295.13 892.2 1286.73 888.85 1278.26 884.48 1266.3 878.3 1256.5 871.24 1252.53 865.94Z" fill="#ffc930" opacity="1" stroke-width="4" stroke="none"></path><path d="M1147.53 831.47C1147 830.87 1146.73 830.2 1146.66 829.59 1146.39 827.58 1148.27 825.83 1151.9 824.69 1155.53 823.48 1160.5 823.01 1165.88 823.34 1175.08 823.88 1183.48 826.57 1186.16 829.99 1186.7 830.6 1186.97 831.27 1187.04 831.88 1187.57 835.97 1178.98 838.79 1167.82 838.19 1158.62 837.59 1150.29 834.9 1147.53 831.47Z" fill="#ffc930" opacity="1" stroke-width="4" stroke="none"></path><path d="M1168.97 881.66C1160.1 883.2 1154.59 882.6 1153.85 879.98 1152.44 875.07 1168.02 864.59 1188.72 856.6 1197.65 853.17 1206.52 850.55 1213.71 849.28 1222.58 847.73 1228.09 848.33 1228.82 850.95 1229.5 853.31 1226.27 857.07 1219.69 861.5 1213.1 865.94 1203.97 870.44 1193.96 874.33 1185.02 877.83 1176.15 880.45 1168.97 881.66Z" fill="#ffc930" opacity="1" stroke-width="4" stroke="none"></path><path d="M1260.45 772.04C1261.98 767.47 1259.16 762.41 1254.15 760.75 1249.15 759.09 1243.87 761.46 1242.35 766.03 1240.83 770.61 1243.65 775.66 1248.65 777.32 1253.65 778.99 1258.94 776.62 1260.45 772.04Z" fill="#ffc930" opacity="1" stroke-width="4" stroke="none"></path><path d="M1224.1 823.15C1237.69 818.41 1245.36 804.94 1241.21 793.06 1237.07 781.19 1222.69 775.4 1209.1 780.15 1195.5 784.89 1187.84 798.36 1191.99 810.24 1196.13 822.11 1210.51 827.9 1224.1 823.15Z" fill="#ffa0dc" opacity="1" stroke-width="4" stroke="none"></path><path d="M1217.73 804.88C1219.76 804.18 1220.9 802.15 1220.28 800.37 1219.66 798.58 1217.5 797.71 1215.48 798.41 1213.44 799.12 1212.3 801.15 1212.92 802.93 1213.55 804.72 1215.7 805.59 1217.73 804.88Z" fill="#615c5f" opacity="1" stroke-width="4" stroke="none"></path><path d="M1290.44 844.26C1296.31 834.94 1292.43 821.93 1281.76 815.19 1271.09 808.47 1257.68 810.57 1251.8 819.89 1245.92 829.21 1249.81 842.22 1260.47 848.95 1271.14 855.68 1284.56 853.58 1290.44 844.26Z" fill="#ffa0dc" opacity="1" stroke-width="4" stroke="none"></path><path d="M1274.41 834.15C1275.43 832.55 1274.77 830.32 1272.95 829.17 1271.13 828.03 1268.83 828.4 1267.82 829.99 1266.82 831.59 1267.47 833.82 1269.29 834.97 1271.12 836.12 1273.41 835.75 1274.41 834.15Z" fill="#615c5f" opacity="1" stroke-width="4" stroke="none"></path><path d="M1278.87 945.34C1278.87 945.28 1278.87 945.28 1278.87 945.34 1278.87 945.28 1278.87 945.28 1278.87 945.34 1276.72 941.52 1274.17 938.02 1271.35 934.73L1262.62 924.92C1257.04 918.67 1256.03 909.6 1260 902.21L1267.18 888.45H1248.44L1241.05 902.21C1237.09 909.54 1238.16 918.67 1243.67 924.92L1252.4 934.73C1255.29 937.95 1257.85 941.52 1259.93 945.28 1265.24 954.68 1267.86 965.36 1267.59 976.18 1267.25 991.5 1261.14 1006.01 1250.39 1016.89H1250.66 1269.33L1269.4 1016.83C1280.15 1005.94 1286.26 991.5 1286.6 976.18 1286.87 965.43 1284.18 954.75 1278.87 945.34Z" fill="#3f231e" opacity="0.2" stroke-width="4" stroke="none"></path></g></svg>